<?xml version="1.0" encoding="UTF-8" standalone="no"?>
<!DOCTYPE svg PUBLIC "-//W3C//DTD SVG 1.1//EN" "http://www.w3.org/Graphics/SVG/1.1/DTD/svg11.dtd">
<svg xmlns="http://www.w3.org/2000/svg" version="1.1" viewBox="0.00 0.00 277.00 246.00">
<g stroke-width="2.00" fill="none" stroke-linecap="butt">
<path stroke="#02233c" vector-effect="non-scaling-stroke" d="
  M 219.20 95.93
  Q 221.38 99.93 225.34 102.27
  Q 228.20 103.96 225.99 105.96
  Q 223.96 107.79 223.70 108.75"
/>
<path stroke="#02233c" vector-effect="non-scaling-stroke" d="
  M 25.23 24.03
  L 24.76 24.12
  Q 24.31 24.21 24.30 24.66
  Q 23.67 55.38 24.22 88.60
  C 24.25 90.59 24.67 92.28 26.46 93.49
  Q 28.09 94.59 29.51 95.87
  Q 29.64 95.99 31.80 98.75
  Q 33.33 100.72 36.13 101.28"
/>
<path stroke="#02233c" vector-effect="non-scaling-stroke" d="
  M 157.61 101.97
  Q 159.90 105.29 163.51 107.07"
/>
<path stroke="#02233c" vector-effect="non-scaling-stroke" d="
  M 111.53 137.17
  Q 112.29 140.68 115.30 141.04"
/>
<path stroke="#02233c" vector-effect="non-scaling-stroke" d="
  M 59.92 93.65
  Q 60.87 92.82 60.84 89.50
  Q 60.62 71.29 61.34 53.03"
/>
</g>
<path fill="#013763" d="
  M 2.59 0.00
  L 72.79 0.00
  L 89.37 0.00
  L 111.03 0.00
  Q 114.65 0.88 119.71 5.54
  Q 134.66 19.31 148.91 32.75
  C 155.63 39.09 163.12 45.35 169.43 51.79
  C 172.04 54.46 175.17 53.82 178.65 53.92
  Q 197.58 54.41 216.43 53.51
  Q 216.97 53.48 216.97 54.02
  Q 216.95 72.25 216.95 90.51
  Q 216.95 93.91 219.20 95.93
  Q 221.38 99.93 225.34 102.27
  Q 228.20 103.96 225.99 105.96
  Q 223.96 107.79 223.70 108.75
  L 210.92 120.57
  A 0.61 0.60 44.3 0 1 210.11 120.58
  Q 202.76 114.28 195.32 107.77
  C 193.04 105.77 191.05 104.17 190.94 101.05
  Q 190.56 91.02 191.09 77.47
  Q 191.15 76.01 189.68 76.01
  Q 178.44 76.01 166.36 76.01
  C 162.30 76.01 159.88 76.22 157.36 73.83
  Q 131.02 48.89 103.60 24.21
  C 102.60 23.31 101.32 23.00 100.01 23.00
  Q 64.34 22.97 26.94 22.98
  A 1.30 1.28 24.3 0 0 26.10 23.29
  L 25.23 24.03
  L 24.76 24.12
  Q 24.31 24.21 24.30 24.66
  Q 23.67 55.38 24.22 88.60
  C 24.25 90.59 24.67 92.28 26.46 93.49
  Q 28.09 94.59 29.51 95.87
  Q 29.64 95.99 31.80 98.75
  Q 33.33 100.72 36.13 101.28
  L 39.89 104.16
  A 0.41 0.41 0.0 0 1 39.92 104.78
  L 23.34 119.95
  A 1.16 1.16 0.0 0 1 21.80 119.98
  Q 12.59 112.18 2.62 104.13
  Q 0.37 102.31 0.00 99.95
  L 0.00 1.99
  L 0.28 0.78
  Q 0.38 0.32 0.85 0.25
  L 2.59 0.00
  Z"
/>
<path fill="#013763" d="
  M 169.63 0.00
  L 275.98 0.00
  Q 275.99 50.00 275.99 100.00
  C 275.99 101.43 275.81 102.43 274.69 103.42
  Q 263.84 112.97 253.12 121.80
  C 242.15 130.83 231.72 140.09 220.76 149.56
  Q 219.31 150.82 217.83 151.71
  Q 217.41 151.96 217.32 152.45
  Q 216.83 155.25 216.83 156.50
  Q 216.80 174.63 217.05 193.23
  A 0.76 0.75 89.6 0 1 216.30 194.00
  Q 198.12 193.98 179.75 193.88
  Q 176.32 193.86 172.71 194.11
  Q 170.48 194.26 168.59 195.68
  Q 164.42 198.81 160.76 202.65
  A 1.83 1.82 42.2 0 1 158.26 202.77
  L 141.19 188.08
  Q 140.78 187.73 141.12 187.32
  Q 142.59 185.52 144.39 184.10
  Q 150.31 179.43 156.02 173.50
  Q 158.35 171.08 161.74 171.04
  Q 176.60 170.87 189.87 171.04
  Q 190.94 171.05 190.92 169.99
  Q 190.71 158.38 190.92 146.10
  C 190.97 143.19 192.70 141.27 194.80 139.55
  Q 213.12 124.47 230.34 109.39
  Q 238.82 101.97 247.84 94.44
  Q 249.39 93.15 250.00 91.05
  Q 250.99 87.57 251.00 84.25
  Q 251.04 54.38 251.01 25.19
  A 2.19 2.19 0.0 0 0 248.83 23.00
  Q 215.20 22.94 180.77 23.01
  Q 178.76 23.02 176.57 23.11
  C 172.13 23.31 170.70 26.08 167.75 28.56
  Q 163.60 32.06 159.56 35.83
  A 0.61 0.61 0.0 0 1 158.74 35.85
  L 141.16 21.05
  A 0.32 0.32 0.0 0 1 141.21 20.53
  Q 142.50 19.83 143.51 18.85
  Q 151.82 10.72 160.34 2.09
  C 163.19 -0.80 166.09 0.69 169.63 0.00
  Z"
/>
<path fill="#030e14" d="
  M 25.23 24.03
  Q 25.20 24.12 25.15 24.19
  Q 25.02 24.35 25.02 24.56
  Q 24.98 58.28 24.99 89.89
  C 24.99 92.44 26.76 92.54 28.22 93.96
  Q 32.05 97.68 36.13 101.28
  Q 33.33 100.72 31.80 98.75
  Q 29.64 95.99 29.51 95.87
  Q 28.09 94.59 26.46 93.49
  C 24.67 92.28 24.25 90.59 24.22 88.60
  Q 23.67 55.38 24.30 24.66
  Q 24.31 24.21 24.76 24.12
  L 25.23 24.03
  Z"
/>
<path fill="#013763" d="
  M 114.23 246.00
  L 0.00 246.00
  L 0.00 144.86
  Q 12.41 133.64 25.90 122.34
  C 34.86 114.84 43.43 107.34 52.19 99.84
  Q 53.80 98.46 55.52 96.86
  Q 57.42 95.10 59.92 93.65
  Q 60.87 92.82 60.84 89.50
  Q 60.62 71.29 61.34 53.03
  L 103.37 53.04
  A 5.04 5.02 24.4 0 0 106.68 51.80
  L 116.38 43.39
  A 0.97 0.96 45.2 0 1 117.64 43.40
  L 134.31 58.07
  A 1.45 1.45 0.0 0 1 134.23 60.31
  Q 130.44 63.23 126.78 66.95
  C 124.09 69.68 121.11 71.81 118.30 74.35
  C 116.14 76.32 113.32 76.18 110.62 76.14
  Q 98.42 75.96 85.54 75.99
  Q 84.99 75.99 84.99 76.54
  Q 84.93 88.46 85.12 100.64
  Q 85.17 103.91 82.78 105.83
  Q 72.83 113.81 65.24 120.58
  C 60.11 125.16 54.91 129.18 49.65 133.80
  Q 40.03 142.26 27.82 152.66
  C 26.62 153.68 25.93 155.52 25.93 157.07
  Q 25.97 187.46 26.03 222.49
  Q 26.03 223.01 26.55 223.01
  Q 64.59 223.01 100.10 222.99
  Q 103.66 222.99 106.04 220.49
  Q 110.42 215.88 116.19 211.47
  Q 116.56 211.18 117.02 211.29
  Q 118.44 211.63 119.63 212.66
  Q 127.03 219.04 134.39 224.99
  A 0.83 0.82 -47.8 0 1 134.45 226.22
  L 114.23 246.00
  Z"
/>
<path fill="#030e14" d="
  M 61.34 53.03
  Q 60.62 71.29 60.84 89.50
  Q 60.87 92.82 59.92 93.65
  L 60.01 54.79
  A 1.13 1.13 0.0 0 0 59.59 53.91
  L 59.15 53.56
  A 0.23 0.22 55.8 0 1 59.22 53.16
  Q 60.39 52.84 61.34 53.03
  Z"
/>
<path fill="#013763" d="
  M 141.33 101.42
  Q 140.73 101.58 140.15 101.89
  A 0.70 0.70 0.0 0 1 139.11 101.32
  C 138.98 99.02 138.64 96.59 139.35 94.38
  Q 141.93 86.36 150.85 85.04
  Q 151.65 84.92 151.79 85.71
  Q 152.82 91.66 149.92 95.52
  Q 146.51 100.06 141.33 101.42
  Z"
/>
<path fill="#030e14" d="
  M 219.20 95.93
  L 227.94 103.48
  A 0.67 0.67 0.0 0 1 227.97 104.46
  L 223.70 108.75
  Q 223.96 107.79 225.99 105.96
  Q 228.20 103.96 225.34 102.27
  Q 221.38 99.93 219.20 95.93
  Z"
/>
<path fill="#013763" d="
  M 157.61 101.97
  Q 159.90 105.29 163.51 107.07
  C 168.41 112.61 167.50 120.79 165.41 127.47
  C 163.26 134.38 157.34 143.34 149.64 143.95
  Q 146.60 144.19 142.94 143.54
  C 138.17 142.69 133.76 144.25 128.93 144.07
  Q 126.79 143.99 124.69 142.65
  Q 121.39 140.53 119.54 138.57
  C 117.14 136.02 115.27 131.94 113.82 128.61
  Q 111.79 123.94 111.89 117.72
  Q 112.06 107.11 121.20 101.98
  C 123.70 100.58 127.07 99.90 129.91 100.68
  Q 133.39 101.64 136.65 102.70
  C 140.46 103.93 145.33 101.84 148.97 100.70
  Q 150.72 100.15 153.04 100.75
  Q 155.42 101.35 157.61 101.97
  Z"
/>
<path fill="#030e14" d="
  M 157.61 101.97
  Q 161.08 103.84 163.51 107.07
  Q 159.90 105.29 157.61 101.97
  Z"
/>
<path fill="#013763" d="
  M 111.53 137.17
  Q 112.29 140.68 115.30 141.04
  C 118.08 143.81 120.68 146.33 124.98 146.10
  Q 130.53 145.80 135.80 150.24
  C 136.71 151.01 136.98 152.29 137.72 153.26
  A 1.55 1.55 0.0 0 0 140.31 153.09
  Q 143.26 147.84 149.23 146.53
  C 152.35 145.85 156.25 146.63 158.92 144.39
  Q 162.63 141.27 166.69 136.85
  Q 167.67 135.78 169.12 135.74
  Q 169.60 135.73 170.00 135.92
  Q 171.75 136.78 170.67 138.40
  Q 166.90 144.09 162.03 148.51
  C 161.35 149.12 160.82 150.25 160.55 151.12
  Q 160.00 152.87 161.51 151.83
  C 163.36 150.55 164.12 148.44 165.71 146.87
  Q 169.21 143.40 172.39 139.97
  Q 173.59 138.68 173.83 136.74
  A 1.06 1.04 23.5 0 0 173.45 135.80
  Q 172.33 134.89 170.77 134.38
  A 0.91 0.90 -52.6 0 0 169.98 134.49
  L 169.52 134.80
  Q 169.06 135.11 169.01 134.56
  Q 168.89 133.22 169.14 131.96
  Q 169.97 127.73 170.44 123.25
  A 1.39 1.38 16.6 0 1 172.45 122.17
  L 175.10 123.53
  A 1.31 1.29 11.2 0 1 175.81 124.58
  Q 176.53 132.61 175.72 137.47
  Q 174.99 141.81 171.34 146.83
  Q 168.78 150.36 164.08 153.49
  Q 151.06 162.18 135.94 161.21
  C 126.58 160.61 117.93 156.81 110.48 150.90
  C 106.50 147.75 102.09 140.75 101.98 135.26
  Q 101.90 130.85 101.97 126.36
  Q 102.01 123.83 104.29 122.75
  L 104.91 122.46
  Q 107.40 121.27 107.67 124.02
  Q 108.06 127.95 108.90 131.92
  Q 109.17 133.17 109.05 134.46
  Q 108.97 135.25 108.41 134.69
  Q 108.32 134.59 108.24 134.49
  A 0.52 0.49 63.9 0 0 107.70 134.29
  Q 105.59 134.83 104.30 136.08
  A 0.95 0.91 -28.5 0 0 104.03 136.93
  Q 104.38 138.58 105.53 139.84
  Q 109.27 143.95 113.37 147.82
  C 114.74 149.11 115.05 150.88 116.67 151.88
  Q 117.78 152.57 117.50 151.29
  Q 117.13 149.55 115.74 148.31
  Q 110.32 143.43 107.12 138.21
  A 1.45 1.44 58.7 0 1 107.60 136.22
  Q 109.69 134.96 111.53 137.17
  Z"
/>
<path fill="#013763" d="
  M 275.97 246.00
  L 162.05 246.00
  Q 151.44 236.54 140.81 226.37
  C 137.75 223.45 134.55 220.83 131.61 217.82
  C 126.66 212.73 121.00 208.47 116.02 203.42
  Q 111.12 198.46 105.39 194.07
  C 104.36 193.28 103.14 193.07 101.87 193.06
  Q 81.37 192.91 59.34 193.02
  A 0.34 0.34 0.0 0 1 59.00 192.68
  Q 59.01 174.10 58.98 155.08
  Q 58.98 151.74 56.13 149.51
  Q 52.17 146.41 48.42 143.10
  A 1.21 1.20 44.5 0 1 48.40 141.31
  L 64.60 126.39
  A 1.52 1.51 44.1 0 1 66.63 126.36
  L 83.83 141.36
  A 3.69 3.67 20.8 0 1 85.09 144.15
  L 85.00 168.99
  A 0.99 0.98 0.3 0 0 85.99 169.98
  L 113.71 169.99
  A 4.22 4.21 -25.2 0 1 116.40 170.96
  Q 121.06 174.83 124.69 178.25
  Q 141.08 193.69 156.08 207.36
  Q 163.32 213.95 169.88 220.12
  Q 172.95 223.01 177.00 223.01
  Q 213.57 223.02 250.59 222.99
  A 0.40 0.40 0.0 0 0 250.99 222.59
  Q 251.04 189.17 250.97 158.16
  Q 250.97 154.70 247.31 151.62
  Q 242.69 147.74 238.29 143.86
  Q 237.68 143.31 237.21 142.63
  A 1.18 1.17 -39.9 0 1 237.35 141.12
  L 252.13 126.59
  Q 253.03 125.70 254.02 126.50
  L 275.54 143.92
  A 2.31 2.30 -70.4 0 1 276.38 145.70
  L 275.97 246.00
  Z"
/>
<path fill="#030e14" d="
  M 111.53 137.17
  L 115.30 141.04
  Q 112.29 140.68 111.53 137.17
  Z"
/>
</svg>
