<?xml version="1.0" standalone="no"?>
<!DOCTYPE svg PUBLIC "-//W3C//DTD SVG 20010904//EN"
 "http://www.w3.org/TR/2001/REC-SVG-20010904/DTD/svg10.dtd">
<svg version="1.0" xmlns="http://www.w3.org/2000/svg"
 width="512.000000pt" height="512.000000pt" viewBox="0 0 512.000000 512.000000"
 preserveAspectRatio="xMidYMid meet">

<g transform="translate(0.000000,512.000000) scale(0.100000,-0.100000)"
fill="#000000" stroke="none">
<path d="M30 4044 l0 -1051 206 -189 c113 -104 209 -190 214 -192 6 -2 192
191 290 301 l24 28 -132 132 -132 132 0 708 0 707 709 0 709 0 532 -550 531
-550 285 0 284 0 0 -288 0 -288 175 -174 176 -174 28 30 c15 16 90 93 166 172
l138 143 -102 103 -102 102 -2 424 -2 425 -425 5 -425 5 -520 540 -519 540
-1053 5 -1053 5 0 -1051z"/>
<path d="M2818 4881 c-109 -118 -195 -218 -191 -221 5 -4 79 -73 165 -153 87
-81 161 -147 165 -147 5 0 67 59 138 130 l130 130 702 0 703 0 0 -713 0 -713
-545 -524 -544 -525 -3 -285 -3 -285 -291 -5 -292 -5 -166 -172 c-91 -94 -166
-173 -166 -175 0 -2 77 -78 171 -168 l171 -163 106 106 107 107 418 0 417 0 0
418 0 417 550 529 550 528 0 1049 0 1049 -1047 2 -1047 3 -198 -214z"/>
<path d="M2075 4115 l-97 -105 -429 0 -429 0 0 -424 0 -424 -545 -523 -545
-523 0 -1053 0 -1053 1048 1 1047 0 193 209 c105 115 192 213 192 217 0 5 -75
78 -166 162 l-166 154 -137 -137 -136 -136 -700 2 -700 3 -3 710 -2 709 64 61
c35 33 283 271 550 529 l486 470 0 283 0 283 288 0 287 -1 172 178 172 178
-27 28 c-15 16 -93 92 -173 168 l-147 139 -97 -105z"/>
<path d="M2735 3321 c-95 -43 -149 -133 -150 -248 0 -39 3 -75 7 -78 12 -12
112 42 153 82 43 42 70 98 80 165 14 97 -8 116 -90 79z"/>
<path d="M2313 3016 c-93 -30 -157 -92 -199 -194 -19 -47 -24 -75 -24 -162 0
-187 64 -355 175 -459 85 -79 117 -89 237 -72 74 11 109 11 184 0 84 -11 97
-11 141 6 66 25 151 113 190 196 59 125 78 202 78 329 0 103 -3 121 -26 171
-49 104 -124 170 -218 190 -49 10 -60 9 -153 -22 -109 -35 -118 -35 -240 10
-66 24 -86 25 -145 7z"/>
<path d="M1960 2575 c0 -9 -11 -20 -24 -24 -22 -9 -23 -14 -28 -156 l-6 -147
48 -102 c41 -88 57 -111 115 -164 93 -85 158 -126 264 -167 169 -65 343 -65
514 1 109 42 172 81 263 166 57 54 74 78 115 165 l48 102 -6 150 c-6 141 -7
151 -25 151 -11 0 -22 9 -25 20 -7 25 -29 26 -41 3 -5 -10 -15 -58 -21 -108
-7 -49 -15 -102 -17 -117 -5 -25 -3 -28 21 -28 106 0 80 -83 -84 -267 -49 -56
-95 -104 -101 -108 -25 -15 26 64 95 150 116 144 138 195 85 195 -38 0 -78
-29 -125 -90 -60 -78 -103 -110 -146 -110 -55 0 -150 -29 -185 -55 -18 -13
-49 -48 -70 -76 l-38 -52 -21 29 c-11 16 -40 50 -65 75 -49 51 -86 66 -188 76
-58 6 -66 10 -110 53 -26 26 -65 68 -87 94 -31 36 -49 48 -77 53 -58 9 -59
-15 -4 -95 25 -37 67 -92 92 -122 25 -30 54 -73 65 -95 19 -38 17 -37 -42 25
-126 133 -199 235 -199 279 0 24 28 41 65 41 25 0 27 2 21 33 -3 17 -10 73
-17 122 -6 50 -16 96 -21 103 -14 17 -38 15 -38 -3z"/>
<path d="M1100 2368 c-68 -71 -140 -147 -159 -170 l-34 -40 102 -102 101 -101
0 -423 0 -422 423 0 422 0 528 -550 528 -550 1050 0 1049 0 0 1049 0 1049
-187 173 c-104 95 -200 183 -214 196 l-26 24 -156 -168 -157 -168 135 -135
135 -135 0 -703 0 -702 -713 0 -713 0 -525 545 -524 544 -287 1 -288 0 0 291
0 291 -171 166 c-94 92 -177 168 -183 169 -6 1 -67 -57 -136 -129z"/>
</g>
</svg>
