<?xml version="1.0" encoding="UTF-8" standalone="no"?>
<!DOCTYPE svg PUBLIC "-//W3C//DTD SVG 1.1//EN" "http://www.w3.org/Graphics/SVG/1.1/DTD/svg11.dtd">
<svg xmlns="http://www.w3.org/2000/svg" version="1.1" viewBox="0.00 0.00 150.00 150.00">
<path fill="#0100c0" d="
  M 72.85 0.00
  L 77.23 0.00
  Q 82.98 0.86 85.53 2.73
  Q 127.06 33.10 137.60 41.38
  C 141.09 44.12 142.97 49.58 142.98 54.13
  Q 143.03 75.37 143.26 93.66
  Q 143.37 102.92 134.75 109.38
  Q 114.14 124.81 90.35 143.61
  C 83.57 148.96 76.86 151.45 68.63 148.81
  Q 65.27 147.73 59.83 143.66
  Q 34.67 124.80 13.56 109.20
  C 8.16 105.21 6.40 100.05 6.45 93.51
  Q 6.62 73.89 6.49 56.32
  Q 6.42 46.25 14.09 40.54
  Q 38.85 22.10 64.57 2.83
  Q 67.17 0.89 72.85 0.00
  Z
  M 137.57 79.26
  C 139.28 68.74 135.11 57.81 126.82 51.66
  Q 103.01 33.99 81.99 17.96
  Q 75.18 12.76 68.53 17.78
  Q 48.88 32.64 27.75 48.31
  Q 19.90 54.14 16.69 58.46
  C 10.72 66.53 9.78 78.16 14.08 87.20
  Q 17.26 93.87 24.05 98.89
  Q 51.52 119.18 69.56 132.79
  C 72.84 135.26 77.00 135.39 80.34 132.80
  Q 102.65 115.56 125.16 98.61
  Q 135.72 90.67 137.57 79.26
  Z"
/>
<path fill="#0100c0" d="
  M 51.22 97.21
  Q 51.69 97.72 51.71 97.02
  Q 51.84 92.55 51.73 87.72
  C 51.53 78.89 64.69 79.82 64.75 85.52
  Q 64.91 100.52 64.50 116.66
  Q 64.48 117.41 63.76 117.20
  Q 48.77 112.70 40.78 102.26
  Q 29.25 87.21 31.80 68.48
  C 34.48 48.78 51.18 32.57 71.29 31.03
  Q 92.25 29.43 106.47 44.37
  Q 116.72 55.13 118.30 70.02
  C 120.56 91.24 106.38 112.21 85.48 117.12
  A 0.48 0.48 0.0 0 1 84.89 116.64
  Q 85.33 103.30 85.24 89.79
  Q 85.21 85.70 85.84 84.29
  C 88.14 79.09 98.47 79.79 98.30 86.45
  Q 98.17 91.56 98.26 96.19
  Q 98.28 97.62 99.19 96.51
  Q 108.21 85.48 107.38 72.38
  C 105.32 39.58 62.20 30.41 46.35 58.81
  C 39.35 71.36 41.32 86.60 51.22 97.21
  Z"
/>
<circle fill="#0100c0" cx="75.07" cy="63.18" r="8.28"/>
<circle fill="#0100c0" cx="91.69" cy="71.62" r="7.18"/>
<circle fill="#0100c0" cx="58.63" cy="72.00" r="7.21"/>
<path fill="#0100c0" d="
  M 67.86 79.58
  C 67.94 71.54 82.31 71.78 82.29 79.08
  Q 82.23 99.18 81.94 117.45
  Q 81.93 118.08 81.31 118.15
  Q 74.71 118.89 68.37 118.19
  Q 67.78 118.12 67.77 117.53
  Q 67.65 100.17 67.86 79.58
  Z"
/>
</svg>
